<?xml version="1.0" encoding="utf-8"?>
<!-- Generator: Adobe Illustrator 27.0.0, SVG Export Plug-In . SVG Version: 6.00 Build 0)  -->
<svg version="1.1" id="_图层_2" xmlns="http://www.w3.org/2000/svg" xmlns:xlink="http://www.w3.org/1999/xlink" x="0px" y="0px"
	 viewBox="0 0 610.6 699.5" style="enable-background:new 0 0 610.6 699.5;" xml:space="preserve">
<style type="text/css">
	.st0{fill:#211815;}
	.st1{fill:url(#SVGID_1_);}
	.st2{fill:url(#SVGID_00000013189395044156001340000012601504740110338964_);}
	.st3{fill:url(#SVGID_00000075871295753311935740000004756475441183968955_);}
	.st4{fill:url(#SVGID_00000094612183370369536230000004373638116845406650_);}
</style>
<g id="_图层_1-2">
	<g>
		<g>
			<path class="st0" d="M79,660.7c0.9-6-0.4-10.4-3.8-13.4s-10.1-6.2-20-9.9C37.7,631.7,24.7,624.9,16,617
				c-8.7-7.9-12.1-17.8-10.3-29.8c1.8-12,8.1-21.5,19-28.5c10.9-7,24-10.4,39.3-10.4c16.7,0,29.8,4,39.2,12c9.5,8,13,19,10.6,33
				l-0.2,0.6H80.5c0.8-5.8-0.7-10.5-4.5-14c-3.8-3.6-9.1-5.3-15.9-5.3c-5,0-9.5,1.2-13.4,3.6s-6.2,5.4-6.8,8.9
				c-0.8,5.5,0.7,9.5,4.5,12.2s12,6.2,24.4,10.6c15.9,5.2,27.7,11.7,35.4,19.7c7.7,7.9,10.7,18.3,8.8,31
				c-1.9,12.6-8.3,22.2-18.9,28.9c-10.7,6.7-23.9,10-39.6,10s-29.8-3.7-41-11s-15.4-18.7-12.8-34l0.2-0.6h33.1
				c-1.1,7.2,0.8,12.2,5.9,15.1c5.1,2.9,11.2,4.3,18.5,4.3c5,0,9.5-1.2,13.6-3.6S78.4,664.3,79,660.7L79,660.7z"/>
			<path class="st0" d="M254.1,637.1c-2.9,18.8-10.9,33.9-23.9,45.3s-28.9,17-47.6,17s-31.9-5.9-42.1-17.8s-13.9-26.7-11.1-44.5
				l3.9-26.4c2.8-18.7,10.7-33.8,23.9-45.2c13.1-11.4,29.1-17.2,48-17.2c17.8,0,31.7,5.9,41.8,17.8s13.8,26.7,11.2,44.5L254.1,637.1
				L254.1,637.1z M224,610.5c1.6-10.9,0.5-19.6-3.4-26.1s-10.4-9.8-19.5-9.8s-16.4,3.4-22.4,10.1s-9.9,15.3-11.4,25.8l-3.9,26.6
				c-1.7,11-0.6,19.8,3.4,26.3c3.9,6.5,10.5,9.8,19.8,9.8c8.6,0,16-3.4,22-10.2c6.1-6.8,9.9-15.4,11.6-25.9L224,610.5L224,610.5z"/>
			<path class="st0" d="M388.3,697.4h-34l-40-92.4l-0.6,0.1l-13.7,92.3h-34.1l22-146.9h34.1l40,92.3l0.6-0.1l13.8-92.2h34
				L388.3,697.4L388.3,697.4z"/>
			<path class="st0" d="M452,697.4h-34l22-146.9h34L452,697.4z"/>
			<path class="st0" d="M601.8,647.8l0.2,0.6c-2.4,17.4-9,30.3-19.8,38.6c-10.8,8.3-25.3,12.5-43.4,12.5s-31.1-5.6-40.8-16.8
				s-13.2-25.7-10.5-43.4l4.6-30.7c2.8-18.6,10.2-33.2,22.3-44c12.1-10.8,27-16.2,44.6-16.2s31.5,4.4,40.7,13.1
				c9.2,8.7,12.4,21.3,9.7,37.7l-0.3,0.6h-33.3c1.3-9.3,0.4-15.9-2.7-19.6s-9.2-5.6-18.1-5.6c-7.3,0-13.6,3.1-18.9,9.3
				c-5.2,6.2-8.6,14.4-10.1,24.5l-4.6,30.9c-1.6,10.6-0.6,19,3,25c3.6,6,9.6,9,18.1,9c7.5,0,13.3-2,17.5-6c4.2-4,7-10.5,8.4-19.5
				L601.8,647.8L601.8,647.8z"/>
		</g>
	</g>
	<g>
		
			<linearGradient id="SVGID_1_" gradientUnits="userSpaceOnUse" x1="-1389.704" y1="1490.3983" x2="-1195.4387" y2="1807.4208" gradientTransform="matrix(0.9724 0.2334 0.2334 -0.9724 1177.2136 2157.9014)">
			<stop  offset="0" style="stop-color:#0046A5"/>
			<stop  offset="1" style="stop-color:#78F0FF"/>
		</linearGradient>
		<path class="st1" d="M395.7,362c-3.1,12.9-8.3,24.7-15.1,35.2c-10.6,16.4-25.2,29.5-42.1,38.5c-23.5,12.5-51.6,16.8-79.5,10
			c-28-6.7-51-23.2-66.3-45.1c-11-15.6-18-34-20-53.4c11.8-5.6,24.2-9.9,37.1-12.7c9.1-2,18.3,3.8,20.3,12.9
			c4.5,20.6,20.3,37.9,42.2,43.1c27.3,6.6,54.8-7.9,65.4-32.9c1.2-2.9,2.2-5.9,3-9s1.2-6.2,1.4-9.3c1.9-27.1-16-52.5-43.3-59
			c-28-6.7-51-23.2-66.3-45.1c-11-15.6-18-34-20-53.4c-1.3-12.5-0.6-25.4,2.5-38.3c3.1-12.9,8.3-24.7,15.1-35.3
			c10.6-16.4,25.2-29.5,42.1-38.5c23.5-12.5,51.6-16.8,79.5-10.1s51,23.2,66.3,45.1c11,15.6,18,34,20,53.4
			c-11.8,5.6-24.2,9.9-37.1,12.7c-9.1,2-18.3-3.8-20.3-12.9c-4.5-20.6-20.3-37.8-42.2-43.1c-27.3-6.6-54.8,7.9-65.4,32.9
			c-1.2,2.9-2.2,5.9-3,9c-0.8,3.1-1.2,6.2-1.4,9.3c-1.9,27.1,16,52.5,43.3,59c28,6.7,51,23.2,66.3,45.1c11,15.6,18,34,20,53.4
			C399.5,336.2,398.8,349.1,395.7,362L395.7,362z"/>
		
			<linearGradient id="SVGID_00000065062133526482160380000000776245394828443050_" gradientUnits="userSpaceOnUse" x1="-1419.3931" y1="1612.1733" x2="-1241.6447" y2="1902.2307" gradientTransform="matrix(0.9724 0.2334 0.2334 -0.9724 1177.2136 2157.9014)">
			<stop  offset="0" style="stop-color:#0046A5"/>
			<stop  offset="1" style="stop-color:#78F0FF"/>
		</linearGradient>
		<path style="fill:url(#SVGID_00000065062133526482160380000000776245394828443050_);" d="M480.2,129.7
			c-12.6,11.6-26.9,21.2-42.3,28.6c-2-19.4-9-37.7-20-53.4c-15.3-21.8-38.3-38.4-66.3-45.1c-28-6.7-56-2.4-79.5,10.1
			c-16.9,8.9-31.5,22.1-42.1,38.5c-6.8,10.5-12,22.4-15.1,35.3c-3.1,12.9-3.9,25.8-2.5,38.3c2,19.4,9.1,37.8,20,53.4
			c15.3,21.8,38.3,38.4,66.3,45.1c-21.9-5.2-43.8,2.9-57.1,19.2c-5.9,7.2-16.7,8.2-23.9,2.3c-10.2-8.3-19.3-17.8-27.3-28.1
			c-12.7-16.5-22.3-35.3-28.3-55.4c-8.2-27.7-9.5-57.9-2.3-88c7.2-30.1,22.1-56.4,42-77.4c14.4-15.2,31.5-27.5,50.3-36.5
			c17.5-8.4,36.5-13.7,56.2-15.7c18.5-1.8,37.5-0.7,56.6,3.9s36.6,12.2,52.2,22.2c16.7,10.7,31.1,24.1,43,39.5
			c10.4,13.6,18.8,28.6,24.7,44.7C487.1,117.7,485.3,125,480.2,129.7L480.2,129.7z"/>
		
			<linearGradient id="SVGID_00000034064263798028106930000009494814233114958223_" gradientUnits="userSpaceOnUse" x1="-1343.5115" y1="1395.5756" x2="-1165.7526" y2="1685.6501" gradientTransform="matrix(0.9724 0.2334 0.2334 -0.9724 1177.2136 2157.9014)">
			<stop  offset="0" style="stop-color:#0046A5"/>
			<stop  offset="1" style="stop-color:#78F0FF"/>
		</linearGradient>
		<path style="fill:url(#SVGID_00000034064263798028106930000009494814233114958223_);" d="M450.8,375.2
			c-7.2,30.1-22.1,56.4-42,77.4c-14.4,15.2-31.5,27.5-50.3,36.5c-17.5,8.4-36.5,13.8-56.2,15.7c-18.5,1.8-37.5,0.7-56.6-3.9
			s-36.6-12.2-52.2-22.2c-16.7-10.7-31.1-24.1-43-39.5c-10.4-13.5-18.8-28.6-24.7-44.7c-2.4-6.5-0.7-13.9,4.5-18.6
			c12.6-11.6,26.9-21.2,42.3-28.6c2,19.4,9.1,37.8,20,53.4c15.3,21.8,38.3,38.4,66.3,45.1c28,6.7,56,2.4,79.5-10
			c16.9-9,31.5-22.1,42.1-38.5c6.8-10.5,12-22.4,15.1-35.2c3.1-12.9,3.9-25.8,2.5-38.3c-2-19.4-9-37.7-20-53.4
			c-15.3-21.8-38.3-38.4-66.3-45.1c21.9,5.2,43.8-2.9,57.1-19.3c5.9-7.2,16.7-8.2,23.9-2.3c10.2,8.3,19.3,17.8,27.3,28.1
			c12.7,16.5,22.3,35.3,28.3,55.4C456.8,314.9,458.1,345.1,450.8,375.2L450.8,375.2z"/>
		
			<linearGradient id="SVGID_00000106107000292765318140000008019713926903477410_" gradientUnits="userSpaceOnUse" x1="-1345.8359" y1="1561.9668" x2="-1239.2921" y2="1735.8433" gradientTransform="matrix(0.9724 0.2334 0.2334 -0.9724 1177.2136 2157.9014)">
			<stop  offset="0" style="stop-color:#0046A5"/>
			<stop  offset="1" style="stop-color:#78F0FF"/>
		</linearGradient>
		<path style="fill:url(#SVGID_00000106107000292765318140000008019713926903477410_);" d="M332,141.5c-15.8-3.8-31.7,5.9-35.5,21.8
			c-3.8,15.8,5.9,31.7,21.8,35.5c15.8,3.8,31.7-5.9,35.5-21.8C357.6,161.2,347.8,145.3,332,141.5L332,141.5z M292.3,306.9
			c-15.8-3.8-31.7,6-35.5,21.8c-3.8,15.8,5.9,31.7,21.8,35.5c15.8,3.8,31.7-6,35.5-21.8C317.9,326.6,308.1,310.7,292.3,306.9z"/>
	</g>
</g>
</svg>
